<?xml version="1.0" encoding="utf-8"?>
<!-- Generator: Adobe Adobe Illustrator 29.2.0, SVG Export Plug-In . SVG Version: 6.00 Build 0)  -->
<svg version="1.1" id="Layer_1" xmlns="http://www.w3.org/2000/svg" xmlns:xlink="http://www.w3.org/1999/xlink" x="0px" y="0px"
	 width="576.93px" height="382.44px" viewBox="0 0 576.93 382.44" style="enable-background:new 0 0 576.93 382.44;"
	 xml:space="preserve">
<style type="text/css">
	.st0{fill:none;stroke:#000000;stroke-width:10;stroke-linejoin:round;stroke-miterlimit:10;}
	.st1{fill:none;stroke:#000000;stroke-width:2;stroke-linejoin:round;stroke-miterlimit:10;}
</style>
<path class="st0" d="M25.37,331.04v-276c0-17.67,14.33-32,32-32h460c17.67,0,32,14.33,32,32v276c0,17.67-14.33,32-32,32h-460
	C39.7,363.04,25.37,348.71,25.37,331.04z"/>
<polyline class="st0" points="25.56,107.22 549.33,107.22 549.33,102.69 "/>
<g transform="translate(0.000000,112.000000) scale(0.100000,-0.100000)">
	<path d="M1055.15-245.9c-50.07-7.95-92.6-31-127.57-68.75c-29.01-31-43.32-56.83-53.25-96.57c-13.91-54.05-9.14-98.96,16.29-151.81
		c65.57-136.31,247.99-165.72,355.29-57.63c86.24,87.03,86.24,222.16,0,309.59C1195.44-259.81,1122.31-234.77,1055.15-245.9z
		 M1140.99-272.13c89.82-26.63,146.25-99.75,146.65-190.76c0-44.51-9.14-77.5-31-111.28c-31.4-48.48-83.06-81.07-141.88-89.82
		c-33.78-4.77-58.02-1.99-50.47,5.56c4.77,4.77,0.4,14.31-12.72,30.2c-7.55,8.74-7.55,8.74,0.79,17.88
		c9.14,9.54,12.72,38.55,4.77,38.55c-1.99,0-3.97-7.95-3.97-17.49c0-10.33-2.38-19.08-5.96-22.26c-7.95-6.36-7.55-11.53,1.19-21.06
		c3.58-3.97,6.76-12.72,6.76-19.08c0-10.73-0.79-11.53-11.92-9.14c-29.01,5.56-70.34,29.41-95.78,54.84
		c-108.49,108.89-59.22,293.29,89.02,334.23C1063.1-264.18,1115.16-264.57,1140.99-272.13z"/>
	<path d="M1111.19-277.29c-3.18-5.17,3.18-21.46,11.13-27.82c7.95-6.76,7.95-13.91,0.4-20.27c-6.76-5.56-8.74-55.64-1.99-55.64
		c2.38,0,2.78,8.74,1.59,23.05c-1.99,19.87-1.59,23.45,5.96,30.2c10.33,9.54,10.33,15.1,0.4,24.24c-4.77,4.37-7.55,11.13-7.15,17.09
		C1122.71-276.5,1115.56-270.14,1111.19-277.29z"/>
	<path d="M1068.27-336.11c0.79-23.45,2.38-43.72,3.18-44.51c3.97-3.97,4.77,4.37,5.96,43.32c0.79,34.18,0,41.73-4.77,42.92
		C1067.87-293.59,1067.07-299.94,1068.27-336.11z"/>
	<path d="M1017.79-307.1c-6.36-7.55,0-11.53,13.51-7.95c17.09,4.37,21.86-3.97,21.86-36.56c0-17.09,1.59-29.41,3.97-29.41
		c2.38,0,3.97,12.32,3.97,29.01c0,31.4-5.96,42.52-22.26,42.52c-4.37,0-9.94,1.99-11.92,3.97
		C1023.75-302.33,1020.97-303.12,1017.79-307.1z"/>
	<path d="M1095.69-321.4c-9.54-7.55-10.73-11.13-10.73-34.18c0-14.31,1.59-25.43,3.97-25.43s3.97,11.13,3.97,25.43
		c0,26.23,2.78,31.79,16.69,32.19c3.97,0,7.15,1.99,7.15,3.97C1117.54-311.87,1106.42-313.06,1095.69-321.4z"/>
	<path d="M1011.83-324.98c-2.78-4.37,7.15-13.11,10.73-9.54c6.36,6.36,14.7-8.74,14.7-27.02c0-10.73,1.99-19.47,3.97-19.47
		c2.38,0,3.97,8.74,3.97,19.08c0,15.9-1.99,21.06-11.13,29.81C1022.56-321.01,1015.41-318.62,1011.83-324.98z"/>
	<path d="M1142.98-329.75c-8.74-7.15-10.33-11.13-10.33-29.81c0-12.72,1.59-21.46,4.37-21.46c2.78,0,3.18,5.56,1.59,15.5
		c-3.18,19.87,3.18,32.99,15.1,31.4c5.56-0.79,9.14,1.19,9.94,5.96C1165.63-319.02,1156.09-319.42,1142.98-329.75z"/>
	<path d="M1099.66-336.11c-2.78-6.36,1.99-44.91,5.96-44.91c2.38,0,3.18,5.56,1.59,14.31c-1.99,8.74-1.19,16.29,1.59,19.47
		c2.78,3.18,3.58,7.55,1.99,9.94C1108.01-332.53,1102.05-332.14,1099.66-336.11z"/>
	<path d="M1018.19-398.9c-15.1-17.09-40.14-23.05-52.06-12.32c-4.37,3.97-6.76,9.94-5.56,14.7c1.59,5.17,0,7.55-4.37,7.55
		c-18.28,0,3.97-31.79,22.65-32.19c7.15,0,16.29-1.59,20.27-3.18c7.15-2.78,7.15-3.18-1.99-5.56c-18.28-4.77-34.18-2.78-41.33,5.17
		c-9.14,9.94-14.7,9.94-23.85,0c-4.37-4.77-11.13-7.55-17.49-7.15c-7.15,0.79-10.33-0.79-10.33-4.77c0-8.35,17.49-5.96,27.82,3.97
		c9.94,9.54,15.1,9.94,21.86,1.99c2.78-3.58,11.92-5.96,21.46-6.36c8.74,0,19.87-1.59,24.24-3.18c7.15-2.78,6.36-3.58-4.77-5.96
		c-7.15-1.59-15.9-1.19-20.27,1.19c-8.35,4.37-12.72,2.38-12.72-5.96c0-3.58,5.56-4.37,21.86-2.78c22.26,2.38,31-3.58,13.11-8.35
		c-26.23-6.76-46.5,1.59-43.72,18.28c0.79,4.37-1.19,7.15-4.77,7.15c-10.33,0-10.33-5.96,0-19.08
		c9.54-11.92,11.92-12.72,33.78-12.72c14.31,0,23.45-1.59,23.45-4.37s-13.51-3.97-41.73-2.78c-35.37,0.79-41.73,0.4-41.73-4.77
		s6.36-5.96,41.73-4.77c29.01,1.19,41.73,0.4,41.73-2.78c0-2.78-9.94-4.37-27.02-4.37c-23.05,0-28.61-1.19-35.37-8.74
		c-4.37-5.17-9.14-15.1-10.33-21.86c-2.38-11.53-1.59-13.11,5.56-13.11s7.95,1.59,5.56,11.92c-4.37,19.08,2.78,23.85,34.18,23.85
		c15.5,0,27.42-1.59,27.42-3.97c0-1.99-8.74-3.97-19.47-3.97c-16.69,0-21.06-1.59-28.22-10.73c-8.35-10.73-9.54-23.05-1.99-21.86
		c2.38,0.4,3.97,3.97,3.97,7.95c0.4,13.11,6.36,16.69,26.23,16.69c17.88,0,19.47-0.79,19.47-9.54c0-20.67,6.36-22.26,82.66-22.26
		c38.55,0,72.73,1.59,75.51,3.18c3.58,2.78,4.77,21.46,3.97,80.68l-1.19,77.1l-67.96,1.19l-68.36,0.79L1018.19-398.9z
		 M1152.52-464.48v-63.59h-63.59h-63.59v56.43c0,74.71-3.58,70.74,70.34,70.74h56.83V-464.48z"/>
	<path d="M1218.09-392.54c-1.19-1.99,0-5.17,1.99-6.36c3.18-1.99,1.99-5.56-2.78-10.73c-5.96-6.76-10.33-7.55-25.83-5.56
		c-15.9,2.38-19.08,1.59-19.08-3.58c0-5.17,3.58-5.96,21.06-3.58c21.06,2.38,38.55,15.1,38.55,27.82
		C1232-388.17,1221.67-386.98,1218.09-392.54z"/>
	<path d="M1237.96-406.05c1.99-9.94,0.79-14.7-5.56-20.27c-7.15-6.36-12.32-7.15-34.18-5.17c-15.5,1.59-25.83,0.79-25.83-1.19
		c0-2.38,13.11-3.97,29.01-3.97c31.79,0,42.52,5.96,42.52,23.05c0,4.37,1.99,9.54,3.97,10.73c5.56,3.18,1.19,9.94-6.36,9.94
		C1237.17-392.94,1236.37-396.12,1237.96-406.05z"/>
	<path d="M1246.31-445.4c-4.37-2.38-21.06-3.58-40.54-1.99c-18.28,0.79-33.38,0.4-33.38-1.59s15.5-3.58,34.97-3.58
		c19.08,0,38.55-1.19,43.72-2.38c6.36-1.99,8.74-0.79,8.74,3.58C1259.82-442.62,1255.05-440.63,1246.31-445.4z"/>
	<path d="M1172.39-464.48c0-2.38,11.53-3.97,25.43-3.97c26.63,0,31.79-2.78,32.19-17.49c0-10.33,9.94-13.11,9.94-3.18
		c0,15.9-12.32,23.85-40.54,26.23C1183.12-461.69,1172.39-462.49,1172.39-464.48z"/>
	<path d="M1191.46-475.21c-24.24-1.99-25.04-9.14-1.19-9.54c9.94-0.4,20.27-0.79,23.05-1.19c5.56-0.4,6.76,10.73,0.79,11.53
		C1212.13-474.01,1201.8-474.41,1191.46-475.21z"/>
	<path d="M1261.01-490.31c-5.17-2.78-12.32-7.55-16.29-11.13c-7.15-6.36-7.95-6.36-14.7,1.19c-5.56,6.36-12.32,7.95-32.59,7.95
		c-13.91,0-25.04-1.59-25.04-3.97c0-2.38,11.13-3.97,25.43-3.97c17.49,0,26.63-1.99,30.2-5.96c6.36-7.95,11.53-7.55,21.06,1.19
		c3.97,3.58,12.32,6.76,17.88,6.76c5.56,0,10.73,1.99,11.53,4.37C1280.88-487.13,1270.95-485.14,1261.01-490.31z"/>
	<path d="M1172.39-512.17c0-1.99,8.74-3.97,19.47-3.97c18.28,0,29.41-5.96,27.82-14.31c-2.38-13.11,6.36-19.08,11.13-7.15
		c1.19,3.58-2.38,10.73-9.14,17.88c-9.14,9.54-14.31,11.53-30.2,11.53C1181.13-508.19,1172.39-509.78,1172.39-512.17z"/>
	<path d="M1037.27-561.84c0-3.18,1.99-5.96,3.97-5.96c2.38,0,3.97,2.78,3.97,5.96s-1.59,5.96-3.97,5.96
		C1039.25-555.88,1037.27-558.66,1037.27-561.84z"/>
	<path d="M1053.16-561.84c0-3.18,1.99-5.96,3.97-5.96c2.38,0,3.97,2.78,3.97,5.96s-1.59,5.96-3.97,5.96
		C1055.15-555.88,1053.16-558.66,1053.16-561.84z"/>
	<path d="M1068.27-571.78c-0.4-8.74-0.79-19.08-0.79-22.65c-0.4-7.95,9.94-9.94,12.72-1.99c0.79,3.18-1.19,3.97-5.96,2.38
		c-4.37-1.59-5.56-1.19-2.38,1.19c5.56,3.97,5.96,36.96,0.79,36.96C1070.65-555.88,1068.66-563.03,1068.27-571.78z"/>
	<path d="M1084.96-561.84c0-3.18,1.99-5.96,3.97-5.96c2.38,0,3.97,2.78,3.97,5.96s-1.59,5.96-3.97,5.96
		C1086.94-555.88,1084.96-558.66,1084.96-561.84z"/>
	<path d="M1100.85-590.46c0-19.47-1.19-38.95-2.38-43.72c-1.99-6.76-0.79-9.14,3.58-9.14c8.74,0,12.32,7.15,6.76,13.91
		c-3.58,3.97-4.37,16.69-3.18,39.74c0.79,18.68,0.4,33.78-1.59,33.78C1102.44-555.88,1100.85-571.38,1100.85-590.46z"/>
	<path d="M1116.75-584.89c0-33.78,3.97-39.74,29.41-44.11c14.31-2.78,15.1-2.38,13.11,5.17c-1.19,4.77-0.4,8.35,1.59,8.35
		s3.58,3.58,3.58,8.35c0,6.76-1.59,7.95-9.94,5.96c-12.72-3.18-19.47,9.14-16.29,29.81c1.59,9.54,0.79,15.5-1.59,15.5
		c-1.99,0-3.97-8.35-3.97-18.68c0-14.7,2.38-21.06,10.33-29.41c10.73-11.53,9.94-19.47-1.99-19.47c-15.1,0-21.46,13.91-19.47,41.73
		c1.19,14.31,0.79,25.83-1.19,25.83C1118.34-555.88,1116.75-569,1116.75-584.89z"/>
	<path d="M1037.27-583.3c0-12.72-5.56-18.28-17.88-18.28c-8.35,0-11.13-10.33-3.58-12.72c8.74-2.78,29.41,18.68,29.41,31
		c0,6.36-1.59,11.53-3.97,11.53C1039.25-571.78,1037.27-576.94,1037.27-583.3z"/>
	<path d="M1084.96-587.28c0-14.31-6.76-25.43-14.31-23.85c-13.11,2.38-19.08-6.36-7.15-11.13c3.58-1.19,10.73,2.38,17.88,9.14
		c8.74,8.35,11.53,14.7,11.53,26.23c0,8.35-1.59,15.1-3.97,15.1C1086.94-571.78,1084.96-578.53,1084.96-587.28z"/>
</g>
<g>
	<path d="M84.56,167.6c0,2.11-1.63,3.7-3.7,3.7c-1.06,0-2.16-0.43-2.88-1.34l-5.95-7.3l-2.4,2.26v2.69c0,2.02-1.63,3.7-3.7,3.7
		c-2.02,0-3.7-1.68-3.7-3.7v-25.49c0-2.02,1.68-3.7,3.7-3.7c2.06,0,3.7,1.68,3.7,3.7v14.64l8.16-8.45c0.67-0.67,1.58-1.06,2.5-1.06
		c1.97,0,3.46,1.54,3.46,3.46c0,0.96-0.38,1.82-1.06,2.5l-5.28,5.14l6.48,7.1C84.17,165.78,84.56,166.69,84.56,167.6z"/>
</g>
<g>
	<path d="M158.23,154.45v13.15c0,2.02-1.68,3.7-3.7,3.7c-2.06,0-3.7-1.68-3.7-3.7v-10.13c0-2.83-1.49-3.84-3.79-3.84
		c-2.21,0-3.65,1.2-4.51,2.26v11.71c0,2.02-1.63,3.7-3.7,3.7c-2.02,0-3.7-1.68-3.7-3.7v-16.66c0-2.11,1.58-3.79,3.7-3.79
		c1.97,0,3.5,1.44,3.74,3.31c1.44-1.63,4.08-3.36,7.97-3.36C155.83,147.11,158.23,150.18,158.23,154.45z"/>
	<path d="M186.69,154.45v13.15c0,2.02-1.68,3.7-3.7,3.7c-2.06,0-3.7-1.68-3.7-3.7v-10.13c0-2.83-1.49-3.84-3.79-3.84
		c-2.21,0-3.65,1.2-4.51,2.26v11.71c0,2.02-1.63,3.7-3.7,3.7c-2.02,0-3.7-1.68-3.7-3.7v-16.66c0-2.11,1.58-3.79,3.7-3.79
		c1.97,0,3.5,1.44,3.74,3.31c1.44-1.63,4.08-3.36,7.97-3.36C184.29,147.11,186.69,150.18,186.69,154.45z"/>
	<path d="M202.87,147.11c6.86,0,11.86,5.04,11.86,10.9c0,2.64-1.58,3.6-4.42,3.6h-12.1c0.43,2.16,2.45,4.13,5.9,4.13
		c1.3,0,2.74-0.34,4.03-0.96c0.34-0.19,0.77-0.29,1.2-0.29c1.54,0,2.78,1.25,2.78,2.83c0,1.15-0.72,2.11-1.68,2.54
		c-2.26,1.1-4.8,1.58-7.25,1.58c-7.15,0-12.67-4.66-12.67-12.19C190.53,152.53,195.62,147.11,202.87,147.11z M198.12,156.8h9.55
		c-0.19-1.63-1.39-3.98-4.8-3.98C199.65,152.82,198.4,155.12,198.12,156.8z"/>
	<path d="M229.51,147.11c2.83,0,5.04,0.72,6.67,1.82c1.01,0.58,1.68,1.58,1.68,2.78c0,1.82-1.49,3.31-3.31,3.31
		c-0.62,0-1.2-0.14-1.73-0.48c-0.86-0.62-1.82-0.91-2.98-0.91c-3.07,0-5.42,2.11-5.42,5.62c0,3.5,2.35,5.66,5.42,5.66
		c1.15,0,2.11-0.29,2.98-0.91c0.48-0.29,1.1-0.53,1.68-0.53c1.87,0,3.31,1.49,3.31,3.36c0,1.2-0.62,2.21-1.63,2.78
		c-1.63,1.1-3.84,1.82-6.67,1.82c-7.25,0-12.67-4.9-12.67-12.19C216.83,152,222.26,147.11,229.51,147.11z"/>
	<path d="M255.91,168.08c0,1.49-1.01,2.64-2.35,2.98c-0.82,0.24-1.87,0.38-3.02,0.38c-4.7,0-7.25-2.35-7.25-6.82v-10.51h-1.06
		c-1.78,0-3.22-1.49-3.22-3.22c0-1.78,1.44-3.22,3.22-3.22h1.06v-3.07c0-2.02,1.63-3.7,3.7-3.7c2.02,0,3.65,1.68,3.65,3.7v3.07h1.92
		c1.78,0,3.22,1.44,3.22,3.22c0,1.73-1.44,3.22-3.22,3.22h-1.92v8.45c0,1.3,0.72,2.3,1.92,2.35h0.72
		C254.85,165.01,255.91,166.45,255.91,168.08z"/>
	<path d="M269.83,147.11c6.86,0,11.86,5.04,11.86,10.9c0,2.64-1.58,3.6-4.42,3.6h-12.1c0.43,2.16,2.45,4.13,5.9,4.13
		c1.3,0,2.74-0.34,4.03-0.96c0.34-0.19,0.77-0.29,1.2-0.29c1.54,0,2.78,1.25,2.78,2.83c0,1.15-0.72,2.11-1.68,2.54
		c-2.26,1.1-4.8,1.58-7.25,1.58c-7.15,0-12.67-4.66-12.67-12.19C257.49,152.53,262.58,147.11,269.83,147.11z M265.07,156.8h9.55
		c-0.19-1.63-1.39-3.98-4.8-3.98C266.61,152.82,265.36,155.12,265.07,156.8z"/>
	<path d="M308.28,142.11v25.49c0,2.06-1.58,3.84-3.7,3.84c-1.82,0-3.41-1.39-3.75-3.17c-1.92,2.21-4.27,3.17-6.77,3.17
		c-5.71,0-10.27-4.32-10.27-12.19c0-7.58,4.46-12.15,10.27-12.15c2.54,0,4.99,0.96,6.87,3.31v-8.3c0-2.02,1.63-3.7,3.65-3.7
		C306.64,138.42,308.28,140.1,308.28,142.11z M300.93,162.8v-7.1c-0.96-1.25-2.88-2.06-4.46-2.06c-2.93,0-5.09,2.16-5.09,5.62
		c0,3.46,2.16,5.66,5.09,5.66C298.05,164.91,299.97,164.05,300.93,162.8z"/>
</g>
</svg>
