<?xml version="1.0" encoding="utf-8"?>
<!-- Generator: Adobe Adobe Illustrator 29.2.0, SVG Export Plug-In . SVG Version: 6.00 Build 0)  -->
<svg version="1.1" id="Layer_1" xmlns="http://www.w3.org/2000/svg" xmlns:xlink="http://www.w3.org/1999/xlink" x="0px" y="0px"
	 width="511.1px" height="509.3px" viewBox="0 0 511.1 509.3" style="enable-background:new 0 0 511.1 509.3;" xml:space="preserve"
	>
<g transform="translate(0.000000,112.000000) scale(0.100000,-0.100000)">
	<path d="M2159.8,1086.7c-573.6-91-1060.7-355.1-1461.3-787.5C366.2-55.9,202.4-351.8,88.5-807
		C-70.8-1426.1-16.2-1940.5,275.2-2545.9c751.1-1561.4,2840.6-1898.3,4069.7-660.1c987.8,996.9,987.8,2544.7,0,3546.2
		C3766.7,927.4,2929.1,1214.2,2159.8,1086.7z M3143.1,786.3c1028.8-305,1675.2-1142.6,1679.8-2185.1
		c0-509.8-104.7-887.7-355.1-1274.6c-359.6-555.4-951.4-928.6-1625.1-1028.8c-386.9-54.6-664.6-22.8-578.1,63.7
		c54.6,54.6,4.6,163.9-145.7,346c-86.5,100.1-86.5,100.1,9.1,204.8c104.7,109.3,145.7,441.6,54.6,441.6c-22.8,0-45.5-91-45.5-200.3
		c0-118.4-27.3-218.5-68.3-254.9c-91-72.8-86.5-132,13.7-241.3c41-45.5,77.4-145.7,77.4-218.5c0-122.9-9.1-132-136.6-104.7
		c-332.3,63.7-805.7,336.9-1097.1,628.2C-316.6-1790.3,247.9,321.9,1945.8,790.8C2250.8,877.3,2847.2,872.8,3143.1,786.3z"/>
	<path d="M2801.7,727.1c-36.4-59.2,36.4-245.8,127.5-318.7c91-77.4,91-159.3,4.6-232.2c-77.4-63.7-100.1-637.3-22.8-637.3
		c27.3,0,31.9,100.1,18.2,264c-22.8,227.6-18.2,268.6,68.3,346c118.4,109.3,118.4,173,4.6,277.7c-54.6,50.1-86.5,127.5-81.9,195.7
		C2933.7,736.2,2851.7,809,2801.7,727.1z"/>
	<path d="M2310,53.4c9.1-268.6,27.3-500.7,36.4-509.8c45.5-45.5,54.6,50.1,68.3,496.2c9.1,391.5,0,478-54.6,491.6
		C2305.5,540.4,2296.4,467.6,2310,53.4z"/>
	<path d="M1731.9,385.7c-72.8-86.5,0-132,154.8-91c195.7,50.1,250.4-45.5,250.4-418.8c0-195.7,18.2-336.9,45.5-336.9
		s45.5,141.1,45.5,332.3c0,359.6-68.3,487.1-254.9,487.1c-50.1,0-113.8,22.8-136.6,45.5C1800.2,440.3,1768.3,431.2,1731.9,385.7z"/>
	<path d="M2624.1,221.8c-109.3-86.5-122.9-127.5-122.9-391.5c0-163.9,18.2-291.3,45.5-291.3s45.5,127.5,45.5,291.3
		c0,300.4,31.9,364.2,191.2,368.7c45.5,0,81.9,22.8,81.9,45.5C2874.5,331,2747,317.4,2624.1,221.8z"/>
	<path d="M1663.6,180.8c-31.9-50.1,81.9-150.2,122.9-109.3C1859.4,144.4,1955-28.6,1955-238c0-122.9,22.8-223.1,45.5-223.1
		c27.3,0,45.5,100.1,45.5,218.5c0,182.1-22.8,241.3-127.5,341.4C1786.5,226.3,1704.6,253.7,1663.6,180.8z"/>
	<path d="M3165.8,126.2c-100.1-81.9-118.4-127.5-118.4-341.4c0-145.7,18.2-245.8,50.1-245.8c31.9,0,36.4,63.7,18.2,177.5
		c-36.4,227.6,36.4,377.8,173,359.6c63.7-9.1,104.7,13.7,113.8,68.3C3425.3,249.1,3316.1,244.6,3165.8,126.2z"/>
	<path d="M2669.6,53.4c-31.9-72.8,22.8-514.4,68.3-514.4c27.3,0,36.4,63.7,18.2,163.9c-22.8,100.1-13.7,186.6,18.2,223.1
		s41,86.5,22.8,113.8C2765.2,94.3,2697,98.9,2669.6,53.4z"/>
	<path d="M1736.4-665.9c-173-195.7-459.8-264-596.3-141.1c-50.1,45.5-77.4,113.8-63.7,168.4c18.2,59.2,0,86.5-50.1,86.5
		c-209.4,0,45.5-364.2,259.5-368.7c81.9,0,186.6-18.2,232.2-36.4c81.9-31.9,81.9-36.4-22.8-63.7c-209.4-54.6-391.5-31.9-473.4,59.2
		C917-848,853.3-848,748.6-961.8c-50.1-54.6-127.5-86.5-200.3-81.9c-81.9,9.1-118.4-9.1-118.4-54.6c0-95.6,200.3-68.3,318.7,45.5
		c113.8,109.3,173,113.8,250.4,22.8c31.9-41,136.6-68.3,245.8-72.8c100.1,0,227.6-18.2,277.7-36.4c81.9-31.9,72.8-41-54.6-68.3
		c-81.9-18.2-182.1-13.7-232.2,13.7c-95.6,50.1-145.7,27.3-145.7-68.3c0-41,63.7-50.1,250.4-31.9c254.9,27.3,355.1-41,150.2-95.6
		c-300.4-77.4-532.6,18.2-500.7,209.4c9.1,50.1-13.7,81.9-54.6,81.9c-118.4,0-118.4-68.3,0-218.5
		c109.3-136.6,136.6-145.7,386.9-145.7c163.9,0,268.6-18.2,268.6-50.1c0-31.9-154.8-45.5-478-31.9c-405.1,9.1-478,4.6-478-54.6
		c0-59.2,72.8-68.3,478-54.6c332.3,13.7,478,4.6,478-31.9c0-31.9-113.8-50.1-309.5-50.1c-264,0-327.8-13.7-405.1-100.1
		c-50.1-59.2-104.7-173-118.4-250.4c-27.3-132-18.2-150.2,63.7-150.2s91,18.2,63.7,136.6c-50.1,218.5,31.9,273.1,391.5,273.1
		c177.5,0,314.1-18.2,314.1-45.5c0-22.8-100.1-45.5-223.1-45.5c-191.2,0-241.3-18.2-323.2-122.9c-95.6-122.9-109.3-264-22.8-250.4
		c27.3,4.6,45.5,45.5,45.5,91c4.6,150.2,72.8,191.2,300.4,191.2c204.8,0,223.1-9.1,223.1-109.3c0-236.7,72.8-254.9,946.9-254.9
		c441.6,0,833.1,18.2,864.9,36.4c41,31.9,54.6,245.8,45.5,924.1l-13.7,883.1L2656-515.7l-783,9.1L1736.4-665.9z M3275.1-1417v-728.4
		h-728.4h-728.4v646.4c0,855.8-41,810.3,805.7,810.3h651V-1417z"/>
	<path d="M4026.2-593c-13.7-22.8,0-59.2,22.8-72.8c36.4-22.8,22.8-63.7-31.9-122.9c-68.3-77.4-118.4-86.5-295.9-63.7
		c-182.1,27.3-218.5,18.2-218.5-41s41-68.3,241.3-41c241.3,27.3,441.6,173,441.6,318.7C4185.5-543,4067.2-529.3,4026.2-593z"/>
	<path d="M4253.8-747.8c22.8-113.8,9.1-168.4-63.7-232.2c-81.9-72.8-141.1-81.9-391.5-59.2c-177.5,18.2-295.9,9.1-295.9-13.7
		c0-27.3,150.2-45.5,332.3-45.5c364.2,0,487.1,68.3,487.1,264c0,50.1,22.8,109.3,45.5,122.9c63.7,36.4,13.7,113.8-72.8,113.8
		C4244.7-597.6,4235.6-634,4253.8-747.8z"/>
	<path d="M4349.4-1198.5c-50.1-27.3-241.3-41-464.3-22.8c-209.4,9.1-382.4,4.6-382.4-18.2c0-22.8,177.5-41,400.6-41
		c218.5,0,441.6-13.7,500.7-27.3c72.8-22.8,100.1-9.1,100.1,41C4504.2-1166.6,4449.6-1143.9,4349.4-1198.5z"/>
	<path d="M3502.7-1417c0-27.3,132-45.5,291.3-45.5c305,0,364.2-31.9,368.7-200.3c0-118.4,113.8-150.2,113.8-36.4
		c0,182.1-141.1,273.1-464.3,300.4C3625.6-1385.1,3502.7-1394.2,3502.7-1417z"/>
	<path d="M3721.2-1539.9c-277.7-22.8-286.8-104.7-13.7-109.3c113.8-4.6,232.2-9.1,264-13.7c63.7-4.6,77.4,122.9,9.1,132
		C3957.9-1526.3,3839.6-1530.8,3721.2-1539.9z"/>
	<path d="M4517.8-1712.9c-59.2-31.9-141.1-86.5-186.6-127.5c-81.9-72.8-91-72.8-168.4,13.7c-63.7,72.8-141.1,91-373.3,91
		c-159.3,0-286.8-18.2-286.8-45.5s127.5-45.5,291.3-45.5c200.3,0,305-22.8,346-68.3c72.8-91,132-86.5,241.3,13.7
		c45.5,41,141.1,77.4,204.8,77.4c63.7,0,122.9,22.8,132,50.1C4745.5-1676.5,4631.6-1653.7,4517.8-1712.9z"/>
	<path d="M3502.7-1963.3c0-22.8,100.1-45.5,223.1-45.5c209.4,0,336.9-68.3,318.7-163.9c-27.3-150.2,72.8-218.5,127.5-81.9
		c13.7,41-27.3,122.9-104.7,204.8c-104.7,109.3-163.9,132-346,132C3602.8-1917.7,3502.7-1935.9,3502.7-1963.3z"/>
	<path d="M1955-2532.3c0-36.4,22.8-68.3,45.5-68.3c27.3,0,45.5,31.9,45.5,68.3c0,36.4-18.2,68.3-45.5,68.3
		C1977.7-2464,1955-2495.9,1955-2532.3z"/>
	<path d="M2137-2532.3c0-36.4,22.8-68.3,45.5-68.3c27.3,0,45.5,31.9,45.5,68.3c0,36.4-18.2,68.3-45.5,68.3
		C2159.8-2464,2137-2495.9,2137-2532.3z"/>
	<path d="M2310-2646.1c-4.6-100.1-9.1-218.5-9.1-259.5c-4.6-91,113.8-113.8,145.7-22.8c9.1,36.4-13.7,45.5-68.3,27.3
		c-50.1-18.2-63.7-13.7-27.3,13.7c63.7,45.5,68.3,423.4,9.1,423.4C2337.3-2464,2314.6-2545.9,2310-2646.1z"/>
	<path d="M2501.2-2532.3c0-36.4,22.8-68.3,45.5-68.3c27.3,0,45.5,31.9,45.5,68.3c0,36.4-18.2,68.3-45.5,68.3
		C2524-2464,2501.2-2495.9,2501.2-2532.3z"/>
	<path d="M2683.3-2860c0-223.1-13.7-446.1-27.3-500.7c-22.8-77.4-9.1-104.7,41-104.7c100.1,0,141.1,81.9,77.4,159.3
		c-41,45.5-50.1,191.2-36.4,455.2c9.1,214,4.6,386.9-18.2,386.9C2701.5-2464,2683.3-2641.5,2683.3-2860z"/>
	<path d="M2865.4-2796.3c0-386.9,45.5-455.2,336.9-505.3c163.9-31.9,173-27.3,150.2,59.2c-13.7,54.6-4.6,95.6,18.2,95.6
		s41,41,41,95.6c0,77.4-18.2,91-113.8,68.3c-145.7-36.4-223.1,104.7-186.6,341.4c18.2,109.3,9.1,177.5-18.2,177.5
		c-22.8,0-45.5-95.6-45.5-214c0-168.4,27.3-241.3,118.4-336.9c122.9-132,113.8-223.1-22.8-223.1c-173,0-245.8,159.3-223.1,478
		c13.7,163.9,9.1,295.9-13.7,295.9S2865.4-2614.2,2865.4-2796.3z"/>
	<path d="M1955-2778.1c0-145.7-63.7-209.4-204.8-209.4c-95.6,0-127.5-118.4-41-145.7c100.1-31.9,336.9,214,336.9,355.1
		c0,72.8-18.2,132-45.5,132C1977.7-2646.1,1955-2705.3,1955-2778.1z"/>
	<path d="M2501.2-2823.6c0-163.9-77.4-291.3-163.9-273.1c-150.2,27.3-218.5-72.8-81.9-127.5c41-13.7,122.9,27.3,204.8,104.7
		c100.1,95.6,132,168.4,132,300.4c0,95.6-18.2,173-45.5,173C2524-2646.1,2501.2-2723.5,2501.2-2823.6z"/>
</g>
</svg>
